<svg width="160" height="24" viewBox="0 0 160 24" fill="none" xmlns="http://www.w3.org/2000/svg">
<path fill-rule="evenodd" clip-rule="evenodd" d="M19.177 19.0239L21.3317 16.7537L21.4936 16.9034L21.4959 16.9057C23.3102 18.6997 25.3653 20.7318 28.0451 20.7318C30.7526 20.7318 32.9562 18.5182 32.9562 15.7977C32.9562 14.2095 32.3539 12.8324 31.2597 11.9203C30.6043 11.3748 29.7846 11.0255 28.889 10.9095C28.6352 10.8762 28.4202 10.8606 28.2117 10.8606C25.1266 10.8606 22.5923 13.4817 20.5552 15.5887L20.5538 15.5901L17.6798 18.5362C16.8887 19.3323 16.1535 20.0628 15.3882 20.7352H20.968C20.2483 20.0949 19.177 19.0239 19.177 19.0239ZM16.8301 4.55709C16.0698 5.07149 15.4123 5.71673 14.8756 6.47654L14.7407 6.66744L14.5139 6.60876C14.0244 6.48051 13.5181 6.41668 13.0087 6.41668C12.5797 6.41668 12.1466 6.46346 11.7212 6.55782C10.8688 6.74594 10.0698 7.12237 9.37439 7.65918C12.7767 8.10535 15.4217 10.7747 17.7767 13.1513L17.7804 13.1551L18.1853 13.5628L18.5121 13.2346L18.5154 13.2313C21.1507 10.582 23.8722 7.84601 27.8697 7.61041C26.6197 4.95414 23.9899 3.26523 21.0409 3.26523C19.5351 3.26523 18.0788 3.71184 16.8301 4.55709ZM7.00688 11.0473C5.96552 11.3399 5.03402 11.9875 4.38553 12.8686C3.75303 13.7266 3.41853 14.7393 3.41853 15.7977C3.41853 18.6563 5.41249 20.7318 8.15868 20.7318C8.6975 20.7318 9.24934 20.6499 9.79783 20.4892C10.2505 20.3542 10.7181 20.1597 11.1869 19.9097C12.9436 18.9719 14.4603 17.4079 15.7977 16.028L16.0225 15.7963L15.9951 15.7709C15.655 15.4548 15.3167 15.1208 14.9602 14.7687L14.9013 14.7106C13.0704 12.8974 11.0126 10.8606 8.32593 10.8606C7.89006 10.8606 7.44649 10.9234 7.00688 11.0473ZM21.0409 0C25.9927 0 30.2688 3.33937 31.5032 8.14365C34.5131 9.30607 36.3747 12.2204 36.3747 15.7977C36.3747 20.1992 33.0722 23.6608 28.6401 23.9752V23.9925L28.3009 24H7.9157C3.32899 23.9867 0 20.5375 0 15.7977C0 12.5876 1.7924 9.76695 4.68769 8.4071C6.22684 5.21006 9.47911 3.15204 13.0087 3.15204C13.1497 3.15204 13.2895 3.15521 13.4288 3.16235C15.4699 1.12198 18.167 0 21.0409 0ZM53.7634 13.9121L59.9218 3.69241H63.0502V22.9256H59.6682V10.2072L55.3122 17.4366C55.031 17.8664 54.4758 18.4664 53.4964 18.4664C52.517 18.4664 51.9616 17.8664 51.6803 17.4366L47.3246 10.2072V22.9256H43.9425V3.69241H47.0707L53.2258 13.9119C53.3481 14.1151 53.6411 14.1151 53.7634 13.9121ZM131.672 5.93022C131.672 4.68376 130.685 3.69241 129.445 3.69241C128.205 3.69241 127.219 4.68376 127.219 5.93022C127.219 7.17649 128.205 8.16783 129.445 8.16783C130.685 8.16783 131.672 7.17649 131.672 5.93022ZM100.052 14.2862V22.9256H96.6703V15.1645C96.6703 13.3232 95.9658 12.3318 94.275 12.3318C92.4994 12.3318 91.6538 14.0598 91.6538 14.0598V22.9256H88.272V15.1645C88.272 13.3232 87.5675 12.3318 85.8765 12.3318C84.1008 12.3318 83.2555 14.0598 83.2555 14.0598V22.9256H79.8737V9.49934H83.0301V11.4539C83.0301 11.4539 84.2419 9.15957 86.9756 9.15957C90.1882 9.15957 91.1184 11.5104 91.1184 11.5104C91.1184 11.5104 92.2457 9.15957 95.3739 9.15957C98.0795 9.15957 100.052 11.0572 100.052 14.2862ZM74.5381 14.8517C74.4397 13.6933 73.3764 12.1766 71.2943 12.2599C69.2649 12.341 68.4028 13.9062 68.3444 15.0991L74.5381 14.8517ZM68.4158 17.5417C68.7083 18.7223 70.139 20.2053 72.2515 20.1349C74.5894 20.0572 75.8684 18.6544 75.8684 18.6544L77.6423 21.1459C77.6423 21.1459 75.5933 23.1413 72.354 23.2491C68.298 23.3841 65.0689 20.374 64.9393 16.4389C64.8097 12.5037 67.5519 9.29496 71.4109 9.16651C75.0726 9.0446 77.9492 11.7609 78.0852 15.894C78.0937 16.1489 78.1105 16.6586 78.099 17.1688L68.4158 17.5417ZM142.777 14.8517C142.679 13.6933 141.616 12.1766 139.534 12.2599C137.504 12.341 136.642 13.9062 136.584 15.0991L142.777 14.8517ZM136.655 17.5417C136.948 18.7223 138.378 20.2053 140.491 20.1349C142.829 20.0572 144.108 18.6544 144.108 18.6544L145.882 21.1459C145.882 21.1459 143.833 23.1413 140.593 23.2491C136.537 23.3841 133.308 20.374 133.179 16.4389C133.049 12.5037 135.791 9.29496 139.65 9.16651C143.312 9.0446 146.188 11.7609 146.325 15.894C146.333 16.1489 146.35 16.6586 146.339 17.1688L136.655 17.5417ZM108.675 12.3318C110.958 12.3318 112.367 14.1165 112.367 16.2126C112.367 18.3086 110.958 20.0931 108.675 20.0931C106.393 20.0931 104.984 18.3086 104.984 16.2126C104.984 14.1165 106.393 12.3318 108.675 12.3318ZM108.675 23.2658C112.649 23.2658 115.806 20.1498 115.806 16.2126C115.806 12.247 112.649 9.15957 108.675 9.15957C104.702 9.15957 101.545 12.247 101.545 16.2126C101.545 20.1498 104.702 23.2658 108.675 23.2658ZM126.458 9.58438L125.275 12.6435C125.275 12.6435 124.654 12.3318 123.668 12.3318C121.611 12.3318 120.681 14.1446 120.681 14.1446V22.9256H117.299V9.49934H120.512V11.4539C120.512 11.4539 121.667 9.15957 124.147 9.15957C125.359 9.15957 126.458 9.58438 126.458 9.58438ZM127.754 22.9256H131.136V9.49934H127.754V22.9256ZM153.174 20.2913C150.919 20.2913 149.144 18.3651 149.144 18.3651L147.255 20.8297C147.255 20.8297 149.369 23.2658 153.286 23.2658C156.696 23.2658 159.12 21.4244 159.12 19.1299C159.12 16.3541 157.232 15.4761 154.583 14.9096C152.328 14.4281 151.426 14.2297 151.426 13.4082C151.426 12.587 152.582 12.1336 153.85 12.1336C155.654 12.1336 157.176 13.295 157.176 13.295L158.867 10.8023C158.867 10.8023 156.866 9.15957 153.85 9.15957C150.186 9.15957 148.101 11.2556 148.101 13.3517C148.101 15.9008 150.412 17.034 153.061 17.6006C155.09 18.0254 155.71 18.1953 155.71 19.0734C155.71 19.8949 154.555 20.2913 153.174 20.2913Z" fill="#3272D8"/>
</svg>
